<svg width="23" height="24" viewBox="0 0 23 24" fill="none" xmlns="http://www.w3.org/2000/svg">
<path d="M21.1862 20.1668C21.8913 19.2218 22.3751 18.1304 22.602 16.9734C22.8289 15.8164 22.7931 14.6232 22.4973 13.4818C22.2014 12.3405 21.653 11.2801 20.8926 10.379C20.1322 9.47794 19.1791 8.7591 18.1038 8.27556C17.8695 6.92793 17.3312 5.65141 16.5297 4.543C15.7282 3.4346 14.6845 2.52347 13.4781 1.87885C12.2717 1.23422 10.9342 0.873066 9.56731 0.822817C8.20039 0.772569 6.84001 1.03455 5.58951 1.58886C4.33902 2.14316 3.23132 2.97521 2.35059 4.02177C1.46986 5.06834 0.839262 6.30188 0.506716 7.62868C0.17417 8.95548 0.148423 10.3406 0.431434 11.6789C0.714444 13.0171 1.29877 14.2732 2.14 15.3518L0.576247 16.9043C0.420145 17.0625 0.314399 17.2634 0.272353 17.4816C0.230308 17.6999 0.253846 17.9257 0.339997 18.1306C0.424395 18.336 0.567718 18.5119 0.751903 18.636C0.936088 18.7601 1.15289 18.827 1.375 18.8281H7.77625C8.41372 20.172 9.41879 21.3079 10.6751 22.1043C11.9314 22.9007 13.3875 23.325 14.875 23.3281H21.625C21.8471 23.327 22.0639 23.2601 22.2481 23.136C22.4323 23.0119 22.5756 22.836 22.66 22.6306C22.7462 22.4257 22.7697 22.1999 22.7276 21.9816C22.6856 21.7634 22.5799 21.5625 22.4237 21.4043L21.1862 20.1668ZM7 15.4531C7.00154 15.8298 7.03163 16.2059 7.09 16.5781H4.08625L4.48 16.1956C4.58544 16.091 4.66914 15.9666 4.72625 15.8295C4.78337 15.6924 4.81277 15.5453 4.81277 15.3968C4.81277 15.2483 4.78337 15.1013 4.72625 14.9642C4.66914 14.8271 4.58544 14.7026 4.48 14.5981C3.8495 13.9745 3.34965 13.2315 3.00968 12.4124C2.66971 11.5934 2.49644 10.7148 2.5 9.82806C2.5 8.03785 3.21116 6.32096 4.47703 5.05509C5.7429 3.78922 7.45979 3.07806 9.25 3.07806C10.6469 3.06967 12.0113 3.49925 13.1514 4.30641C14.2915 5.11357 15.15 6.25774 15.6062 7.57806C15.3587 7.57806 15.1225 7.57806 14.875 7.57806C12.7864 7.57806 10.7834 8.40775 9.30653 9.8846C7.82968 11.3614 7 13.3645 7 15.4531ZM18.8575 21.0781L18.9137 21.1343H14.875C13.5738 21.132 12.3136 20.6786 11.3091 19.8514C10.3047 19.0241 9.61807 17.8742 9.36632 16.5976C9.11457 15.3209 9.31323 13.9965 9.92846 12.8498C10.5437 11.7032 11.5374 10.8054 12.7404 10.3092C13.9433 9.81309 15.2811 9.74937 16.5257 10.1289C17.7704 10.5085 18.845 11.3078 19.5664 12.3908C20.2878 13.4737 20.6115 14.7733 20.4822 16.0681C20.353 17.3629 19.7788 18.5729 18.8575 19.4918C18.6455 19.6995 18.5242 19.9826 18.52 20.2793C18.5206 20.4282 18.5508 20.5754 18.6087 20.7125C18.6666 20.8496 18.7512 20.9739 18.8575 21.0781V21.0781Z" fill="#4F4F4F"/>
</svg>
