<svg width="23" height="24" viewBox="0 0 23 24" fill="none" xmlns="http://www.w3.org/2000/svg">
<path d="M19.375 3.07806H17.125V1.95306C17.125 1.6547 17.0065 1.36855 16.7955 1.15757C16.5845 0.94659 16.2984 0.828064 16 0.828064C15.7016 0.828064 15.4155 0.94659 15.2045 1.15757C14.9935 1.36855 14.875 1.6547 14.875 1.95306V3.07806H8.125V1.95306C8.125 1.6547 8.00647 1.36855 7.79549 1.15757C7.58452 0.94659 7.29837 0.828064 7 0.828064C6.70163 0.828064 6.41548 0.94659 6.20451 1.15757C5.99353 1.36855 5.875 1.6547 5.875 1.95306V3.07806H3.625C2.72989 3.07806 1.87145 3.43364 1.23851 4.06658C0.605579 4.69951 0.25 5.55796 0.25 6.45306V19.9531C0.25 20.8482 0.605579 21.7066 1.23851 22.3395C1.87145 22.9725 2.72989 23.3281 3.625 23.3281H19.375C20.2701 23.3281 21.1286 22.9725 21.7615 22.3395C22.3944 21.7066 22.75 20.8482 22.75 19.9531V6.45306C22.75 5.55796 22.3944 4.69951 21.7615 4.06658C21.1286 3.43364 20.2701 3.07806 19.375 3.07806V3.07806ZM20.5 19.9531C20.5 20.2514 20.3815 20.5376 20.1705 20.7486C19.9595 20.9595 19.6734 21.0781 19.375 21.0781H3.625C3.32663 21.0781 3.04048 20.9595 2.82951 20.7486C2.61853 20.5376 2.5 20.2514 2.5 19.9531V12.0781H20.5V19.9531ZM20.5 9.82806H2.5V6.45306C2.5 6.1547 2.61853 5.86855 2.82951 5.65757C3.04048 5.44659 3.32663 5.32806 3.625 5.32806H5.875V6.45306C5.875 6.75143 5.99353 7.03758 6.20451 7.24856C6.41548 7.45954 6.70163 7.57806 7 7.57806C7.29837 7.57806 7.58452 7.45954 7.79549 7.24856C8.00647 7.03758 8.125 6.75143 8.125 6.45306V5.32806H14.875V6.45306C14.875 6.75143 14.9935 7.03758 15.2045 7.24856C15.4155 7.45954 15.7016 7.57806 16 7.57806C16.2984 7.57806 16.5845 7.45954 16.7955 7.24856C17.0065 7.03758 17.125 6.75143 17.125 6.45306V5.32806H19.375C19.6734 5.32806 19.9595 5.44659 20.1705 5.65757C20.3815 5.86855 20.5 6.1547 20.5 6.45306V9.82806Z" fill="#4F4F4F"/>
</svg>
