<svg width="15" height="15" viewBox="0 0 15 15" fill="none" xmlns="http://www.w3.org/2000/svg">
<path fill-rule="evenodd" clip-rule="evenodd" d="M3.32575 5.98426L7.28315 1.82851L11.2406 5.98426H11.2397V12.909H3.32663V5.98426H3.32575ZM2.00779 7.36827L1.52266 7.87771C1.2567 8.157 0.81119 8.157 0.545232 7.87771C0.297045 7.61709 0.297045 7.20756 0.545232 6.94693L6.35138 0.849785C6.86598 0.30939 7.70032 0.30939 8.21492 0.849785L14.0211 6.94693C14.2693 7.20756 14.2693 7.61709 14.0211 7.87771C13.7551 8.157 13.3096 8.157 13.0436 7.87771L12.5585 7.36829V12.909C12.5585 13.6739 11.9681 14.2939 11.2397 14.2939H3.32663C2.59826 14.2939 2.00779 13.6739 2.00779 12.909V7.36827Z" fill="#333333"/>
</svg>
