<svg width="21" height="24" viewBox="0 0 21 24" fill="none" xmlns="http://www.w3.org/2000/svg">
<path d="M19.5 7.57806L12.75 1.66056C12.1312 1.10711 11.3302 0.80114 10.5 0.80114C9.66983 0.80114 8.86878 1.10711 8.25 1.66056L1.5 7.57806C1.14266 7.89765 0.857512 8.28969 0.663531 8.72809C0.469549 9.16649 0.371189 9.64118 0.375 10.1206V19.9531C0.375 20.8482 0.730579 21.7066 1.36351 22.3395C1.99645 22.9725 2.85489 23.3281 3.75 23.3281H17.25C18.1451 23.3281 19.0036 22.9725 19.6365 22.3395C20.2694 21.7066 20.625 20.8482 20.625 19.9531V10.1093C20.6272 9.63182 20.5281 9.1593 20.3342 8.72295C20.1402 8.28661 19.8559 7.89639 19.5 7.57806V7.57806ZM12.75 21.0781H8.25V15.4531C8.25 15.1547 8.36853 14.8685 8.57951 14.6576C8.79048 14.4466 9.07663 14.3281 9.375 14.3281H11.625C11.9234 14.3281 12.2095 14.4466 12.4205 14.6576C12.6315 14.8685 12.75 15.1547 12.75 15.4531V21.0781ZM18.375 19.9531C18.375 20.2514 18.2565 20.5376 18.0455 20.7486C17.8345 20.9595 17.5484 21.0781 17.25 21.0781H15V15.4531C15 14.558 14.6444 13.6995 14.0115 13.0666C13.3785 12.4336 12.5201 12.0781 11.625 12.0781H9.375C8.47989 12.0781 7.62145 12.4336 6.98851 13.0666C6.35558 13.6995 6 14.558 6 15.4531V21.0781H3.75C3.45163 21.0781 3.16548 20.9595 2.95451 20.7486C2.74353 20.5376 2.625 20.2514 2.625 19.9531V10.1093C2.6252 9.94958 2.65942 9.79172 2.72537 9.64624C2.79132 9.50076 2.8875 9.37099 3.0075 9.26556L9.7575 3.35931C9.9628 3.17895 10.2267 3.07949 10.5 3.07949C10.7733 3.07949 11.0372 3.17895 11.2425 3.35931L17.9925 9.26556C18.1125 9.37099 18.2087 9.50076 18.2746 9.64624C18.3406 9.79172 18.3748 9.94958 18.375 10.1093V19.9531Z" fill="#2F80ED"/>
</svg>
