<svg width="23" height="22" viewBox="0 0 23 22" fill="none" xmlns="http://www.w3.org/2000/svg">
<path d="M20.68 2.76431C19.4856 1.56957 17.9021 0.843178 16.2174 0.717239C14.5327 0.591301 12.8588 1.07418 11.5 2.07806C10.0686 1.0134 8.28699 0.530636 6.51391 0.726978C4.74083 0.923319 3.10799 1.78419 1.94422 3.13622C0.780442 4.48825 0.172172 6.23102 0.241898 8.01358C0.311625 9.79613 1.05417 11.4861 2.32 12.7431L10.7012 21.1243C10.8058 21.2298 10.9303 21.3134 11.0673 21.3706C11.2044 21.4277 11.3515 21.4571 11.5 21.4571C11.6485 21.4571 11.7956 21.4277 11.9326 21.3706C12.0697 21.3134 12.1942 21.2298 12.2987 21.1243L20.68 12.7431C21.3355 12.088 21.8555 11.3102 22.2102 10.4541C22.565 9.598 22.7476 8.68038 22.7476 7.75369C22.7476 6.82699 22.565 5.90937 22.2102 5.05327C21.8555 4.19717 21.3355 3.41937 20.68 2.76431V2.76431ZM19.0937 11.1568L11.5 18.7393L3.90625 11.1568C3.23707 10.4848 2.78122 9.63024 2.59588 8.70019C2.41054 7.77015 2.50397 6.80608 2.86444 5.92893C3.22492 5.05178 3.83638 4.3006 4.62214 3.76964C5.40789 3.23867 6.33294 2.95156 7.28125 2.94431C8.54812 2.94741 9.76198 3.45319 10.6562 4.35056C10.7608 4.456 10.8853 4.5397 11.0223 4.59681C11.1594 4.65393 11.3065 4.68333 11.455 4.68333C11.6035 4.68333 11.7506 4.65393 11.8876 4.59681C12.0247 4.5397 12.1492 4.456 12.2537 4.35056C13.1744 3.5528 14.3637 3.1346 15.581 3.18059C16.7983 3.22658 17.9527 3.73333 18.8105 4.59827C19.6683 5.46322 20.1654 6.62175 20.2013 7.8394C20.2372 9.05704 19.8091 10.2428 19.0037 11.1568H19.0937Z" fill="#4F4F4F"/>
</svg>
