<svg width="17" height="17" viewBox="0 0 17 17" fill="none" xmlns="http://www.w3.org/2000/svg">
<path d="M12.3317 8.27658C12.6488 8.2805 12.9635 8.22088 13.2571 8.10123C13.5508 7.98158 13.8176 7.80432 14.0417 7.57991L16.2821 5.3395C16.4295 5.19117 16.5123 4.99052 16.5123 4.78137C16.5123 4.57222 16.4295 4.37157 16.2821 4.22325C16.2085 4.14904 16.1209 4.09015 16.0245 4.04996C15.928 4.00976 15.8245 3.98907 15.72 3.98907C15.6155 3.98907 15.512 4.00976 15.4155 4.04996C15.3191 4.09015 15.2315 4.14904 15.1579 4.22325L12.8938 6.45575C12.8202 6.52995 12.7326 6.58884 12.6361 6.62903C12.5397 6.66923 12.4362 6.68992 12.3317 6.68992C12.2272 6.68992 12.1237 6.66923 12.0272 6.62903C11.9307 6.58884 11.8432 6.52995 11.7696 6.45575V6.45575L14.5721 3.66116C14.6459 3.58735 14.7045 3.49972 14.7444 3.40328C14.7843 3.30683 14.8049 3.20347 14.8049 3.09908C14.8049 2.99469 14.7843 2.89132 14.7444 2.79488C14.7045 2.69844 14.6459 2.61081 14.5721 2.537C14.4983 2.46318 14.4106 2.40463 14.3142 2.36468C14.2178 2.32473 14.1144 2.30417 14.01 2.30417C13.9056 2.30417 13.8022 2.32473 13.7058 2.36468C13.6094 2.40463 13.5217 2.46318 13.4479 2.537L10.6533 5.3395C10.5059 5.19117 10.4231 4.99052 10.4231 4.78137C10.4231 4.57222 10.5059 4.37157 10.6533 4.22325L12.8938 1.98283C12.9676 1.90901 13.0261 1.82138 13.0661 1.72494C13.106 1.6285 13.1266 1.52513 13.1266 1.42075C13.1266 1.31636 13.106 1.21299 13.0661 1.11655C13.0261 1.02011 12.9676 0.932476 12.8938 0.858662C12.8199 0.784848 12.7323 0.726296 12.6359 0.686348C12.5394 0.6464 12.4361 0.625839 12.3317 0.625839C12.2273 0.625839 12.1239 0.6464 12.0275 0.686348C11.931 0.726296 11.8434 0.784848 11.7696 0.858662L9.52917 3.09908C9.08441 3.54439 8.8346 4.14803 8.8346 4.77741C8.8346 5.40679 9.08441 6.01043 9.52917 6.45575V6.45575L8.50001 7.47699L1.95292 0.906162L1.87376 0.858662C1.83329 0.823353 1.78796 0.794027 1.73917 0.771579L1.59667 0.716162L1.50167 0.652829H1.44626H1.28792C1.24072 0.645281 1.19262 0.645281 1.14542 0.652829C1.0975 0.670272 1.05221 0.694249 1.01084 0.724078L0.884172 0.803245H0.828755L0.781255 0.882412C0.747749 0.924211 0.718572 0.969303 0.694172 1.017C0.670987 1.06527 0.652431 1.11563 0.638755 1.16741C0.638755 1.16741 0.638755 1.22283 0.638755 1.2545C0.446646 2.59353 0.569128 3.95891 0.996491 5.24237C1.42385 6.52583 2.14435 7.69209 3.10084 8.64866L5.19084 10.7307L0.907922 15.0057C0.83372 15.0793 0.774825 15.1669 0.734633 15.2634C0.694441 15.3598 0.673748 15.4633 0.673748 15.5678C0.673748 15.6723 0.694441 15.7758 0.734633 15.8723C0.774825 15.9688 0.83372 16.0563 0.907922 16.1299C0.981895 16.2033 1.06962 16.2613 1.16608 16.3007C1.26253 16.3401 1.36582 16.3601 1.47001 16.3595C1.57419 16.3601 1.67748 16.3401 1.77393 16.3007C1.87039 16.2613 1.95812 16.2033 2.03209 16.1299L6.83751 11.3957L9.07792 9.15533L10.6613 7.57199C11.103 8.01849 11.7036 8.27183 12.3317 8.27658V8.27658ZM6.27542 9.71741L4.19334 7.62741C3.05212 6.47058 2.33755 4.9605 2.16667 3.3445L7.39959 8.56949L6.27542 9.71741ZM11.2154 10.1687C11.0663 10.0185 10.8637 9.93378 10.6522 9.93304C10.4406 9.9323 10.2374 10.0156 10.0873 10.1647C9.93717 10.3138 9.85242 10.5164 9.85168 10.7279C9.85093 10.9395 9.93427 11.1427 10.0833 11.2928L15.0708 16.2803C15.2221 16.4179 15.4206 16.4917 15.625 16.4862C15.7292 16.4868 15.8325 16.4668 15.9289 16.4274C16.0254 16.388 16.1131 16.3299 16.1871 16.2566C16.2613 16.183 16.3202 16.0954 16.3604 15.999C16.4006 15.9025 16.4213 15.799 16.4213 15.6945C16.4213 15.59 16.4006 15.4865 16.3604 15.39C16.3202 15.2936 16.2613 15.206 16.1871 15.1324L11.2154 10.1687Z" fill="white"/>
</svg>
