<svg width="28" height="28" viewBox="0 0 28 28" fill="none" xmlns="http://www.w3.org/2000/svg">
<path fill-rule="evenodd" clip-rule="evenodd" d="M12.117 19.071C8.02926 19.071 4.71545 15.5801 4.71545 11.2738C4.71545 6.96745 8.02926 3.4765 12.117 3.4765C16.2048 3.4765 19.5186 6.96745 19.5186 11.2738C19.5186 13.0756 18.9385 14.7347 17.9642 16.0551L22.9484 21.3058L21.64 22.6842L16.6557 17.4334C15.4024 18.4598 13.8275 19.071 12.117 19.071ZM17.6682 11.2737C17.6682 14.5035 15.1829 17.1217 12.117 17.1217C9.05121 17.1217 6.56585 14.5035 6.56585 11.2737C6.56585 8.04402 9.05121 5.42581 12.117 5.42581C15.1829 5.42581 17.6682 8.04402 17.6682 11.2737Z" fill="white"/>
</svg>
