<svg width="17" height="17" viewBox="0 0 17 17" fill="none" xmlns="http://www.w3.org/2000/svg">
<path d="M16.4167 6.99584C16.4958 6.6 16.1792 6.125 15.7833 6.125L11.2708 5.49167L9.2125 1.375C9.13333 1.21667 9.05417 1.1375 8.89583 1.05834C8.5 0.820835 8.025 0.979169 7.7875 1.375L5.80833 5.49167L1.29583 6.125C1.05833 6.125 0.899999 6.20417 0.820832 6.3625C0.504165 6.67917 0.504165 7.15417 0.820832 7.47083L4.06667 10.6375L3.275 15.15C3.275 15.3083 3.275 15.4667 3.35417 15.625C3.59167 16.0208 4.06667 16.1792 4.4625 15.9417L8.5 13.8042L12.5375 15.9417C12.6167 16.0208 12.775 16.0208 12.9333 16.0208C13.0125 16.0208 13.0125 16.0208 13.0917 16.0208C13.4875 15.9417 13.8042 15.5458 13.725 15.0708L12.9333 10.5583L16.1792 7.39167C16.3375 7.3125 16.4167 7.15417 16.4167 6.99584Z" fill="white"/>
</svg>
