<svg width="17" height="17" viewBox="0 0 17 17" fill="none" xmlns="http://www.w3.org/2000/svg">
<path d="M16.4167 3.09116C16.4173 2.60841 16.2747 2.13634 16.0068 1.73474C15.7389 1.33314 15.3579 1.0201 14.9119 0.835271C14.4659 0.650443 13.9751 0.602151 13.5017 0.696512C13.0283 0.790872 12.5935 1.02364 12.2525 1.36532L10.0279 3.58991L4.89 1.87991C4.7532 1.83691 4.6073 1.83188 4.46787 1.86534C4.32844 1.8988 4.20071 1.96951 4.09833 2.06991L2.21416 3.93824C2.12489 4.02855 2.05865 4.13901 2.02103 4.26031C1.98342 4.3816 1.97553 4.51016 1.99805 4.63514C2.02056 4.76011 2.0728 4.87784 2.15038 4.97839C2.22795 5.07893 2.32857 5.15934 2.44375 5.21282L6.54458 7.07324L4.48625 9.13157L3.1325 8.45074C2.98633 8.37163 2.81898 8.34053 2.65416 8.36185C2.48933 8.38316 2.3354 8.45581 2.21416 8.56949L0.812914 10.0024C0.665465 10.1507 0.582703 10.3514 0.582703 10.5605C0.582703 10.7697 0.665465 10.9703 0.812914 11.1187L5.95083 16.2566C6.09916 16.404 6.29981 16.4868 6.50895 16.4868C6.7181 16.4868 6.91875 16.404 7.06708 16.2566L8.5 14.8553C8.61881 14.7377 8.69736 14.5856 8.72438 14.4206C8.7514 14.2556 8.72551 14.0863 8.65041 13.937L7.96958 12.5832L10.0279 10.5249L11.8883 14.6257C11.9418 14.7409 12.0222 14.8415 12.1228 14.9191C12.2233 14.9967 12.341 15.0489 12.466 15.0714C12.591 15.094 12.7196 15.0861 12.8408 15.0485C12.9621 15.0108 13.0726 14.9446 13.1629 14.8553L15.0312 12.987C15.1316 12.8846 15.2023 12.7569 15.2358 12.6175C15.2693 12.478 15.2642 12.3321 15.2212 12.1953L13.5112 7.05741L15.7042 4.81699C15.9315 4.59102 16.1117 4.32204 16.234 4.02573C16.3563 3.72942 16.4184 3.41172 16.4167 3.09116V3.09116ZM14.58 3.70074L12.015 6.26574C11.9146 6.36812 11.8439 6.49584 11.8104 6.63528C11.777 6.77471 11.782 6.92061 11.825 7.05741L13.535 12.1874L12.8225 12.8999L10.9621 8.80699C10.9093 8.69075 10.8291 8.589 10.7285 8.51043C10.6279 8.43185 10.5097 8.37878 10.3842 8.35574C10.2575 8.33263 10.1272 8.34074 10.0044 8.37936C9.88166 8.41799 9.77016 8.48597 9.67958 8.57741L6.41791 11.8707C6.30081 11.9877 6.22333 12.1385 6.19635 12.3018C6.16936 12.4651 6.19425 12.6327 6.2675 12.7812L6.91666 14.1112L6.47333 14.5545L2.49125 10.5645L2.95833 10.1528L4.31208 10.8337C4.46051 10.9069 4.62816 10.9318 4.79147 10.9048C4.95477 10.8778 5.10552 10.8003 5.2225 10.6832L8.5 7.38991C8.59096 7.29965 8.65866 7.18866 8.69727 7.06648C8.73588 6.94429 8.74426 6.81456 8.72168 6.68842C8.6991 6.56229 8.64624 6.44351 8.56764 6.34231C8.48903 6.24111 8.38704 6.1605 8.27041 6.10741L4.14583 4.24699L4.85833 3.53449L9.98833 5.24449C10.1251 5.28748 10.271 5.29252 10.4105 5.25905C10.5499 5.22559 10.6776 5.15489 10.78 5.05449L13.345 2.48949C13.4239 2.40882 13.5181 2.34472 13.6221 2.30096C13.7261 2.2572 13.8378 2.23466 13.9506 2.23466C14.0635 2.23466 14.1751 2.2572 14.2791 2.30096C14.3831 2.34472 14.4774 2.40882 14.5562 2.48949C14.6388 2.566 14.7041 2.65924 14.7478 2.76299C14.7915 2.86675 14.8126 2.97862 14.8096 3.09116C14.8139 3.20294 14.7958 3.31445 14.7563 3.41913C14.7169 3.52382 14.657 3.61956 14.58 3.70074V3.70074Z" fill="#333333"/>
</svg>
